<svg xmlns="http://www.w3.org/2000/svg" width="184.209" height="69.015" viewBox="0 0 184.209 69.015">
  <g id="Group_421" data-name="Group 421" transform="translate(-899.5 -97.734)">
    <g id="Group_401" data-name="Group 401" transform="translate(899.5 97.734)">
      <rect id="Rectangle_1255" data-name="Rectangle 1255" width="15.216" height="69.012" transform="translate(49.483 0.003)" fill="#70bf43"/>
      <path id="Path_381" data-name="Path 381" d="M212.653,50.864c0-.108-.019-.281-.145-.205a.116.116,0,0,0-.041.07,12.676,12.676,0,0,1-2.3,5.776.222.222,0,0,0-.032.1c.029.16.216.543,1.343-.977.03.06.045,1.7-2.317,5.64a.467.467,0,0,0-.04.157c0,.209.045.631,2.087-1.513a9.9,9.9,0,0,1-2.293,4.717.806.806,0,0,0-.065.084c-.07.111-.266.4.179.169a.811.811,0,0,0,.111-.076,14.779,14.779,0,0,0,1.138-1.089,21.792,21.792,0,0,1-2.806,4.136.4.4,0,0,0-.067.108c-.036.107-.065.292.208.129l.449-.255s.21-.1.285.075c0,.03.075.194.435-.075a15.261,15.261,0,0,0,1.962-1.333c-.015,0,.239-.255.1.119a12.507,12.507,0,0,1-.68,1.739.552.552,0,0,0-.071.145c-.02.136,0,.394.391.139a5.572,5.572,0,0,0,1.573-1.962c0-.028.079,4.784-.07,5.731-.01.066-.038.182-.048.264a5.265,5.265,0,0,1-1.275,2.511c0,.03-.254.42.3.135-.015.015.9-.539,1-.644,0,.03.174-.2.165.149a3.723,3.723,0,0,0,.15.764c.014.028.226.293.376.055a1.534,1.534,0,0,0,.006-.194,1.768,1.768,0,0,1,.143-.535c0,.014.065-.244.23-.039.034.024.079.049.109.07.146.1.586.424,1.07.734,0,.015.419.15.179-.179A1.951,1.951,0,0,1,214,75c-.015,0-.015-.314.24-.135,0,.015.148.06.238.135a.923.923,0,0,0,.3.1c.1.017.169-.034.111-.194a7.469,7.469,0,0,1-1.3-1.873,4.334,4.334,0,0,1-.374-1.872c-.015,0-.03-4.343-.03-4.343s1.6,2.142,3.085,2.142c-.015,0,.451.027.124-.312a.719.719,0,0,1-.094-.127,9.245,9.245,0,0,0-.9-1.478c0-.015-.269-.3.075-.21a9.4,9.4,0,0,0,1.6-.009c.035,0,.156.011.21.008.13-.007.306-.074.03-.328a13.287,13.287,0,0,1-1.947-2.112c0-.015-.074-.15.166-.075,0,.014.276.028.076-.389-.013-.028-.073-.12-.118-.184a9.534,9.534,0,0,1-1.367-3.455c.015,0-.045-.195.149-.03a8.892,8.892,0,0,0,1.093.779c0,.015.465.21.166-.24a22.047,22.047,0,0,1-2.022-4.942c.015.015-.315-.479,1.228.674,0,.015.329.27.135-.494a4.856,4.856,0,0,0-.818-1.376.975.975,0,0,1-.086-.129,13.735,13.735,0,0,1-1.3-3.539A1.152,1.152,0,0,1,212.653,50.864Z" transform="translate(-157.903 -50.142)" fill="#fff"/>
      <path id="Path_382" data-name="Path 382" d="M234.142,60.061a13.062,13.062,0,0,1-2.337,6.034c0,.062.06.831,1.348-.954.031.062.045,1.77-2.366,5.88.059.061-.3,1.109,2.1-1.477a10.275,10.275,0,0,1-2.337,4.895c0,.031-.39.524.21.185a15.315,15.315,0,0,0,1.2-1.17,22.376,22.376,0,0,1-2.846,4.3c0-.016-.194.431.18.2l.45-.262s.21-.107.285.077c0,.031.075.2.434-.077a15.126,15.126,0,0,0,1.962-1.369c-.015,0,.239-.262.1.123a10.65,10.65,0,0,1-.734,1.863c-.015.015-.135.554.374.215a5.7,5.7,0,0,0,1.573-2.017c0-.031.09,5.634-.106,6.035a5.3,5.3,0,0,1-.924,2.323c-.01.276.216.314.323.247a6.371,6.371,0,0,0,.616-.384c0,.031.21-.184.165.154a3.9,3.9,0,0,0,.15.785c.013.027.2.266.345.1a.393.393,0,0,0,.036-.2,1.6,1.6,0,0,1,.144-.594c0,.015.075-.293.269.015,0,.015.554.385,1.138.77,0,.015.419.154.18-.185a2,2,0,0,1-.4-.523c-.015,0-.015-.323.239-.139,0,.015.148.062.239.139-.014,0,.39.215.57.061,0,0,.254-.092-.09-.231a6.662,6.662,0,0,1-1.378-1.847,4.548,4.548,0,0,1-.374-1.924c-.015,0-.031-4.465-.031-4.465a6.318,6.318,0,0,0,2.664,2.146,12.151,12.151,0,0,0,0-1.244,4.565,4.565,0,0,0-.447-.671c0-.016-.27-.308.075-.215a1.937,1.937,0,0,0,.372.032c.015-1.328.009-1,.012-1.869a4.574,4.574,0,0,1-.489-.673c0-.015-.075-.154.165-.076,0,.015.315.031.03-.493a9.455,9.455,0,0,1-1.438-3.648c.014,0-.045-.2.149-.031a8.88,8.88,0,0,0,1.094.8c0,.015.464.216.165-.246a22.97,22.97,0,0,1-2.022-5.08c.015.016-.315-.492,1.228.693,0,.016.329.277.134-.508a5.068,5.068,0,0,0-.869-1.478,14.533,14.533,0,0,1-1.348-3.756C234.321,60.338,234.367,59.861,234.142,60.061Z" transform="translate(-172.81 -56.588)" fill="#fff"/>
      <rect id="Rectangle_1256" data-name="Rectangle 1256" width="15.456" height="69.012" transform="translate(32.771 0.002)" fill="#003865"/>
      <path id="Path_383" data-name="Path 383" d="M186.107,230.43v2.716s-5.9,2.906-7.848-5.781c0,.03-.24-.749.18-.15C178.439,227.245,182.512,233.166,186.107,230.43Z" transform="translate(-137.821 -171.439)" fill="#fff"/>
      <path id="Path_384" data-name="Path 384" d="M185.4,240.564s-6.32-2.426-8.088-11.382c.03.03-.09-.569-.15.15,0,.03.18,10.842,7.968,12.25h.269Z" transform="translate(-137.113 -172.807)" fill="#fff"/>
      <path id="Path_385" data-name="Path 385" d="M173.541,147.509a16.889,16.889,0,0,1-1.028-11.583,12.019,12.019,0,0,1,2.556-4.632s7.189-8.307.958-19.171c-.08,0,7.637,6.31,2.541,17.692a12.454,12.454,0,0,1-1.342,2.357C177.145,132.333,172.813,137.6,173.541,147.509Z" transform="translate(-133.493 -92.432)" fill="#fff"/>
      <path id="Path_386" data-name="Path 386" d="M160.793,118.009s-12.134,13-.711,34.02C160.082,152.116,143.451,133.106,160.793,118.009Z" transform="translate(-120.423 -96.48)" fill="#fff"/>
      <path id="Path_387" data-name="Path 387" d="M171.9,138.1s3.266,8.269,7.532,7.349c-.023.073.271-.919,3.386.6.2.08-3.823,8.068-7.742,7.029.314.229-1.211-.4-1.211-.4s3.682,1.518,7.316-6.23c0,0-.687-.8-3.359.479C177.786,146.842,173.92,148.2,171.9,138.1Z" transform="translate(-133.494 -110.296)" fill="#fff"/>
      <path id="Path_388" data-name="Path 388" d="M186.742,136.723c0,.584-.307,1.058-.685,1.058s-.685-.474-.685-1.058.307-1.058.685-1.058S186.742,136.138,186.742,136.723Z" transform="translate(-142.761 -108.624)" fill="#fff"/>
      <rect id="Rectangle_1257" data-name="Rectangle 1257" width="15.383" height="69.012" transform="translate(16.439 0.003)" fill="#a71b1b"/>
      <path id="Path_389" data-name="Path 389" d="M104.1,49.05s-2.157,4.473,1.677,11.742c-.04.04-4.233,6.63-4.233,7.947,0,.04-.958,3.754.879,6.59,0,.04,2.676,4.792,7.908,4.593a7.863,7.863,0,0,0,6.51-3.315c.04-.04,0-7.468,0-7.468s-2.2-3.395-6.83-1.757a5.757,5.757,0,0,0-3.355,5.032,4.59,4.59,0,0,0,3.954,4.513,2,2,0,0,0,.679.02c0-.02.579-.12,0-.5a2.949,2.949,0,0,1-2.556-3.974s1.2-3.155,4.353-2.556a4.512,4.512,0,0,1,3.435,2.935,4.738,4.738,0,0,1-1.677,4.613,8.352,8.352,0,0,1-6.93,1.258,6.268,6.268,0,0,1-4.073-4.773,10.9,10.9,0,0,1,1.2-5.671,22.382,22.382,0,0,1,2.516-3.784,14.192,14.192,0,0,0,2.776-5.661,12.076,12.076,0,0,0-.759-7.069,10.353,10.353,0,0,0-1.577-2.716Z" transform="translate(-84.929 -49.048)" fill="#fff"/>
      <path id="Path_390" data-name="Path 390" d="M116.014,62.837s3.894-4.493,2.177-8.088a1.494,1.494,0,0,0-1.977-.838c-1.338.6-1.638,4.513-1.158,6.11A19.614,19.614,0,0,0,116.014,62.837Z" transform="translate(-94.248 -52.291)" fill="#a91d1c"/>
      <path id="Path_391" data-name="Path 391" d="M120.6,96.177l9.3,19.48V113.44l-8.744-18.331-.9.539Z" transform="translate(-97.975 -80.729)" fill="#fff"/>
      <path id="Path_392" data-name="Path 392" d="M106.514,190.947a7.117,7.117,0,0,0-2.316,4.263,6.223,6.223,0,0,0,.479,3.675c0,.039.438.359.339-.2-.018,0-.02-.585,1.195-1.66a3.7,3.7,0,0,1,.629-.4c.634-.295,2-1.025,2.321-2.073.042-.134.14-.493.187-.722a7.633,7.633,0,0,0-.118-2.69c0,.08,4.873-6.55,4.873-6.55a18.818,18.818,0,0,0,2.716-6.43c0,.08,1.975-6.749,1.975-6.749v-4.333l-.106.154-.236.85-.944.868-5.042,7.334s-2.7,3.822-3.248,6.669c-.028.149-.107.564-.161.778-.338,1.325-1.463,6.082-1.463,6.082a1.247,1.247,0,0,1-.449.629C107.113,190.438,106.514,190.947,106.514,190.947Z" transform="translate(-86.864 -130.229)" fill="#fff"/>
      <path id="Path_393" data-name="Path 393" d="M127.809,163.774s2.7-.419,2.067-2.995a2.476,2.476,0,0,0-3.355-1.558c.029,0-2.693,1.032-1.1,4.33a2.073,2.073,0,0,0,.3.437A4.944,4.944,0,0,0,130.8,165l.336-.235,1.969-1.382v-1.827a4.4,4.4,0,0,1-3.8,2.815A1.55,1.55,0,0,1,127.809,163.774Z" transform="translate(-101.18 -124.713)" fill="#fff"/>
      <path id="Path_394" data-name="Path 394" d="M109.5,243.035a.763.763,0,0,0-.477-.35c0,.063-2.325,1.592-2.707,3.726C106.283,246.411,107.907,243.641,109.5,243.035Z" transform="translate(-88.383 -182.236)" fill="#a91d1c"/>
      <path id="Path_395" data-name="Path 395" d="M119.647,229.262s-1.142-1.4-2.023-1.019c0,.058-1.042,3.757-1.042,3.757s.482.182.536.466C117.148,232.466,119.647,229.262,119.647,229.262Z" transform="translate(-95.445 -172.257)" fill="#a91d1c"/>
      <path id="Path_396" data-name="Path 396" d="M124.928,189.2a3.5,3.5,0,0,0-2.957-1.737,24.791,24.791,0,0,1,4.281-8.477c0,.06,4.149-6.32,4.149-6.32s.439-.39.439.24c0,.06-2.558,8.806-2.558,8.806A30.962,30.962,0,0,1,124.928,189.2Z" transform="translate(-99.151 -133.992)" fill="#a91d1c"/>
      <rect id="Rectangle_1258" data-name="Rectangle 1258" width="15.384" height="69.012" transform="translate(0 0.003)" fill="#ed8e17"/>
      <path id="Path_397" data-name="Path 397" d="M52.406,244.107s.485-.15,1.484.4c.03.015.666.434,2.332,0a4.821,4.821,0,0,1,3.817-.113,5.623,5.623,0,0,0,3.847.113,4.717,4.717,0,0,1,2.878.256c-.03.029,0-1.618,0-1.618a3.544,3.544,0,0,0-1.848.359,7.192,7.192,0,0,1-4.695.15,4.49,4.49,0,0,0-3.7-.03,4.759,4.759,0,0,1-2.847.327C53.708,243.928,52.285,243.418,52.406,244.107Z" transform="translate(-51.298 -182.55)" fill="#fff"/>
      <path id="Path_398" data-name="Path 398" d="M48.872,253.55a13.236,13.236,0,0,0,2.573-.569,10.321,10.321,0,0,1,6.053.15,6.489,6.489,0,0,0,5.145.209c.03,0,1.3-.628,1.7-.39v-.957s.06-.18-.878.239c.03.03-3.783,1.258-6.053.03a8.046,8.046,0,0,0-4.54-.719c0,.03-3.42.9-4,.659Z" transform="translate(-48.872 -188.279)" fill="#fff"/>
      <path id="Path_399" data-name="Path 399" d="M48.872,261.986s1.422.69,4.117-.3a7.443,7.443,0,0,1,4.963-.9,19.093,19.093,0,0,1,3.814.988,4.988,4.988,0,0,0,2.573.09V263.4a11.145,11.145,0,0,1-4.48-.875,8.627,8.627,0,0,0-5.418-.3,6.716,6.716,0,0,1-5.569.659Z" transform="translate(-48.872 -194.618)" fill="#fff"/>
      <path id="Path_400" data-name="Path 400" d="M48.872,238.367a5.278,5.278,0,0,0,3.415.39,5.022,5.022,0,0,1,3.834.1A4.378,4.378,0,0,0,59,238.611c0,.026,2.486-.311,3.684.382,0-.026.269.243-.21.214a10.3,10.3,0,0,0-3.894.269,3.276,3.276,0,0,1-2.762-.269c-.022,0-2.389-.4-3.438.443a2.766,2.766,0,0,1-2.067-.174,5.16,5.16,0,0,1-1.438-.239Z" transform="translate(-48.872 -179.266)" fill="#fff"/>
      <path id="Path_401" data-name="Path 401" d="M64.328,163.5s-3.035-.13-15.456-3.894V156s4.113-6.25,4.759-4.722c-.081.01-1.628,1.288-3.647,6.44-.023,0,1.792-2.546,1.852-2.576.03,0,.575-.419.393.24-.03.06-.756,3.265-.756,3.265l.7-1.378s.484-1.168.6,0a7.543,7.543,0,0,0,.3,1.588l.484-4.852s.272-.9.544-.03c0,.06.7,5.512.7,5.512l.091-2.666s.121-1.348.454-.12a10.367,10.367,0,0,0,.817,2.905,21.453,21.453,0,0,0-.786-5.99c.03.03-.831-1.378.507-.33a36.494,36.494,0,0,1,2.185,4.583c-.031,0-.544-2.666-.544-2.636s-.061-.539.907.329a11.457,11.457,0,0,0-1.83-4.523c-.015,0-.438-.868.378-.269a14.687,14.687,0,0,1,2.269,2.516c-.031.03-2.309-15.376-10.375-21.885v-1.877s8.872,5.871,12.058,21.647c0,.08-.436-11.5,3.4-18.572.031,0,0,4.873,0,4.873s-1.986,1.8-1.784,15.7a35.259,35.259,0,0,1,1.8-5.032C64.318,148.135,64.328,163.5,64.328,163.5Z" transform="translate(-48.872 -104.4)" fill="#fff"/>
      <path id="Path_402" data-name="Path 402" d="M64.343,157.185s-2.484-14.5-15.471-10.543v-.683s9.606-5.986,15.471,6.634C64.32,152.553,64.343,157.185,64.343,157.185Z" transform="translate(-48.872 -114.729)" fill="#fff"/>
      <path id="Path_403" data-name="Path 403" d="M63.512,103.112s-.359-.319-.439,0c.037.037,1.132,5.038,2.286,10.351,1.314,6.045,2.706,12.494,2.706,12.494h.584Z" transform="translate(-58.64 -86.136)" fill="#fff"/>
      <path id="Path_404" data-name="Path 404" d="M63.894,114.14s.879,7.269,2.676,5.272c0,0,.919.12-.958-6.35,0,0-1.118-1.917-1.718,0A4.612,4.612,0,0,0,63.894,114.14Z" transform="translate(-59.182 -92.491)" fill="#fff"/>
      <path id="Path_405" data-name="Path 405" d="M89.234,84.985s-.2-.539-.5,0c0,.04-.459,31.072-.459,31.072h.479Z" transform="translate(-75.975 -73.601)" fill="#fff"/>
      <path id="Path_406" data-name="Path 406" d="M89.4,96.82s-.788-1.748-1.677,0c-.04.05,0,5.681,0,5.681s-.04.959.619,1.158c.06,0,1.019-.24,1.058-.719C89.442,102.94,89.4,96.82,89.4,96.82Z" transform="translate(-75.584 -81.371)" fill="#fff"/>
      <path id="Path_407" data-name="Path 407" d="M63.339,169.979a4.865,4.865,0,0,0-2.476,0c0,.027-.462.194-.126-.376a1.254,1.254,0,0,1,.517-.339c1.541-.51,7.3-1.842,11.166,5.058-.016,0,0,2.716,0,2.716S70.727,171.786,63.339,169.979Z" transform="translate(-56.948 -131.426)" fill="#fff"/>
      <path id="Path_408" data-name="Path 408" d="M57.745,81.232c.031-.012.071-.046.067-.156a.144.144,0,0,0-.057-.08,5.37,5.37,0,0,1-.762-.591.257.257,0,0,0-.143-.055,6.51,6.51,0,0,0-.759-.021.367.367,0,0,0-.132.062c-.149.112-.637.352-.612-.068,0-.04.062-.756,1.556-.756a18.5,18.5,0,0,0,2.367,0c.031.031,1.246-.062,2.086,0a1.719,1.719,0,0,0,.716-.022.609.609,0,0,1,1-.183,1.26,1.26,0,0,1,.094.1,1.144,1.144,0,0,0,.769.349s.27.166-.166.166a3.679,3.679,0,0,0-1.29.165.671.671,0,0,1-.164.063,4.375,4.375,0,0,1-1.328.022,1.325,1.325,0,0,0,.063.6c-.042-.021.207.083.229.539,0-.019.342,1.063.59,1.193.011.006.05.036.056.057.024.086,0,.245-.355.162a6.078,6.078,0,0,1-1.526-1.134c-.02-.034-.052-.1-.075-.143-.072-.117-.174-.425.169-.862,0,0-.021-.27-1.266,1.038-.02-.02-.522.615-.911.773-.015.006-.062.032-.09.041a.587.587,0,0,0-.393.275.4.4,0,0,1-.032.066c-.055.057-.239.13-.256-.159-.021,0-.042-.207.145-.478,0,.02.038-.7.329-.927A.431.431,0,0,1,57.745,81.232Z" transform="translate(-53.326 -69.766)" fill="#fff"/>
      <path id="Path_409" data-name="Path 409" d="M76.89,61.148a3.085,3.085,0,0,1-3.508.1c0,.02-.395-.311-.644.1-.042,0-.311.208-.478.021,0,0-.124-.1-.124.086,0,.018-.582,0,0-.522-.021,0,.048-.377.56-.332,0,0,.54-.021.644-.208,0,0-.665-.539-.581-2.2,0,.021.208-.353.5.312a4.254,4.254,0,0,0,1.127,1.435c-.027.039.16-.169.451.288a.6.6,0,0,1,.436.208,3.168,3.168,0,0,0,.436,0l-.228-.5s-.229-.189.145-.273c0-.021.27-.644.56-.768.021-.021.644-.754.706-.792-.042-.038.291-.432.291-.432s.332-.166.187.207a10.545,10.545,0,0,1-.872,1.823c0-.017-.042.668.395.606a.943.943,0,0,1,.477.125.679.679,0,0,1,.56.042c0,.042.291-.022.436-.125.021.042.415-.54.747.145a1.174,1.174,0,0,0,.56.249s.146.166-.186.228A15.307,15.307,0,0,0,76.89,61.148Z" transform="translate(-64.696 -54.96)" fill="#fff"/>
      <path id="Path_410" data-name="Path 410" d="M53.6,54.818a6.067,6.067,0,0,0-.706.478.964.964,0,0,1-1.432-.125c.021.021-.229-.365-.644.015-.021.006-.665.347-.768,0,0,.006-.561-.243.187-.533h.789s-.955-1.516-.374-2.055a10.622,10.622,0,0,0,1.557,1.889c0,.021.643.3.062-.431,0,.016-.166-.129.373-.524a1.007,1.007,0,0,1,.436-.5c0,.021.374-.436.374-.436s.249-.436.228.083a1.587,1.587,0,0,0-.166.582.41.41,0,0,1-.207.228c0,.021-.062.706-.062.706s.975.062,1.162.062a.29.29,0,0,0,.208-.2c.021.016.229-.337.561.2a.662.662,0,0,0,.395.062c.021,0,.166.124-.207.207A8.088,8.088,0,0,0,53.6,54.818Z" transform="translate(-49.544 -51.37)" fill="#fff"/>
      <path id="Path_411" data-name="Path 411" d="M178.523,49.043h-1.262c.99,2.02.137,6.3-.264,8.134-.116.531-.272,1.128-.327,1.266a9.4,9.4,0,0,1-.789,1.638c-.148.238-.852,1.526-.931,1.748-2.124,5.589,1.869,8.345,1.869,8.345a14.154,14.154,0,0,1-1.285-4.593c-.014-.168-.005-.435-.005-.509,0-2.48,1.492-4.362,2.328-5.82a4.938,4.938,0,0,0,.4-1c.1-.364.281-1.107.36-1.445C179.723,51.791,178.9,49.69,178.523,49.043Z" transform="translate(-135.165 -49.043)" fill="#fff"/>
      <path id="Path_412" data-name="Path 412" d="M222,168.864v-2.7A24.9,24.9,0,0,1,218.7,148.48a12.912,12.912,0,0,0-1.141-11.342c-1.8-3.245.043-6.113.428-7.277.074-.222.16-.44.2-.571,1.4-4.87-6.111-6.213-6.179-6.29,5.333,2.875-1.946,11.343-1.866,11.263-2.892,3.3.323,8.387.323,8.307,2.5,4.713-3.951,11.9-3.951,11.9l.081,2.7s4.141-5.759,4.314-6.091c4.093-5.651,1.129-10.184,1.1-10.224a5.68,5.68,0,0,1-1.139-5.3,3.23,3.23,0,0,1,.484-.835,29.689,29.689,0,0,0,2.54-3.77c2.3-4.3.867-5.8.277-6.359-.151-.176-.371-.342-.439-.42-.655-.649-.383-.4-.433-.489,5.494,2.2,3.581,6.071,3.587,6.109a24.6,24.6,0,0,0-1.661,4.075,4.336,4.336,0,0,0,.4,3.355c2.983,5.592,2.1,10.065,2.1,9.985A23.836,23.836,0,0,0,222,168.864Z" transform="translate(-157.299 -99.912)" fill="#fff"/>

    </g>
    <g id="Group_414" data-name="Group 414" transform="translate(972.098 111.962)">
      <g id="Clean_Water_Land_Legacy" data-name="Clean Water Land Legacy" transform="translate(0 0)" style="isolation: isolate">
        <g id="Group_411" data-name="Group 411" style="isolation: isolate">
          <path id="Path_481" data-name="Path 481" d="M417.491,469.062a4.485,4.485,0,0,1,3.126,1.2.24.24,0,0,1,.013.362l-.569.582c-.09.116-.206.116-.322,0a3.5,3.5,0,0,0-2.235-.866,3.354,3.354,0,0,0,.013,6.705,3.461,3.461,0,0,0,2.222-.853.236.236,0,0,1,.309-.013l.594.581a.246.246,0,0,1-.013.349,4.436,4.436,0,0,1-3.139,1.253,4.651,4.651,0,1,1,0-9.3Z" transform="translate(-412.827 -469.062)" fill="#fff"/>
          <path id="Path_482" data-name="Path 482" d="M428.787,469.5a.245.245,0,0,1,.246-.245h.853a.254.254,0,0,1,.245.245v7.6h3.5a.245.245,0,0,1,.245.246v.71a.245.245,0,0,1-.245.246h-4.6a.245.245,0,0,1-.246-.246Z" transform="translate(-417.933 -469.123)" fill="#fff"/>
          <path id="Path_483" data-name="Path 483" d="M440.035,469.5a.245.245,0,0,1,.246-.245h5.168a.245.245,0,0,1,.245.245v.724a.245.245,0,0,1-.245.245h-4.083V473.1h3.449a.254.254,0,0,1,.246.245v.724a.245.245,0,0,1-.246.245h-3.449v2.778h4.083a.245.245,0,0,1,.245.246v.71a.245.245,0,0,1-.245.246h-5.168a.245.245,0,0,1-.246-.246Z" transform="translate(-421.532 -469.123)" fill="#fff"/>
          <path id="Path_484" data-name="Path 484" d="M451.195,477.9l3.966-8.695a.3.3,0,0,1,.22-.142h.129a.3.3,0,0,1,.22.142l3.94,8.695a.228.228,0,0,1-.22.336h-.814a.3.3,0,0,1-.3-.194l-.8-1.77h-4.225c-.258.594-.53,1.176-.788,1.77a.327.327,0,0,1-.3.194h-.814A.228.228,0,0,1,451.195,477.9Zm5.852-2.739-1.589-3.54h-.065l-1.576,3.54Z" transform="translate(-425.094 -469.062)" fill="#fff"/>
          <path id="Path_485" data-name="Path 485" d="M467.337,469.294a.243.243,0,0,1,.245-.232h.323l5.607,6.486h.013v-6.112a.245.245,0,0,1,.245-.245h.827a.254.254,0,0,1,.245.245v8.695a.243.243,0,0,1-.245.233h-.336l-5.607-6.666h-.013v6.291a.245.245,0,0,1-.246.246h-.814a.254.254,0,0,1-.245-.246Z" transform="translate(-430.267 -469.062)" fill="#fff"/>
          <path id="Path_486" data-name="Path 486" d="M488.554,469.5a.225.225,0,0,1,.233-.31h.866a.265.265,0,0,1,.233.181l1.563,5.929h.052l2.105-6.1a.232.232,0,0,1,.22-.142h.233a.232.232,0,0,1,.22.142l2.131,6.1h.052L498,469.372a.266.266,0,0,1,.233-.181h.866a.225.225,0,0,1,.232.31l-2.441,8.682a.248.248,0,0,1-.233.181h-.207a.246.246,0,0,1-.22-.142l-2.273-6.421h-.065l-2.235,6.421a.246.246,0,0,1-.22.142h-.207a.248.248,0,0,1-.233-.181Z" transform="translate(-437.051 -469.062)" fill="#fff"/>
          <path id="Path_487" data-name="Path 487" d="M506.332,477.9,510.3,469.2a.3.3,0,0,1,.22-.142h.129a.3.3,0,0,1,.22.142l3.94,8.695a.228.228,0,0,1-.22.336h-.814a.3.3,0,0,1-.3-.194l-.8-1.77H508.45c-.258.594-.529,1.176-.787,1.77a.327.327,0,0,1-.3.194h-.813A.228.228,0,0,1,506.332,477.9Zm5.852-2.739-1.589-3.54h-.065l-1.576,3.54Z" transform="translate(-442.735 -469.062)" fill="#fff"/>
          <path id="Path_488" data-name="Path 488" d="M522.49,470.466h-2.106a.245.245,0,0,1-.246-.245V469.5a.245.245,0,0,1,.246-.245h5.555a.245.245,0,0,1,.245.245v.724a.245.245,0,0,1-.245.245h-2.106v7.583a.254.254,0,0,1-.245.246h-.853a.254.254,0,0,1-.245-.246Z" transform="translate(-447.16 -469.123)" fill="#fff"/>
          <path id="Path_489" data-name="Path 489" d="M532.849,469.5a.245.245,0,0,1,.245-.245h5.169a.245.245,0,0,1,.245.245v.724a.245.245,0,0,1-.245.245h-4.083V473.1h3.449a.254.254,0,0,1,.245.245v.724a.245.245,0,0,1-.245.245h-3.449v2.778h4.083a.245.245,0,0,1,.245.246v.71a.245.245,0,0,1-.245.246h-5.169a.245.245,0,0,1-.245-.246Z" transform="translate(-451.227 -469.123)" fill="#fff"/>
          <path id="Path_490" data-name="Path 490" d="M545.807,469.5a.245.245,0,0,1,.245-.245h3.515a2.788,2.788,0,0,1,2.816,2.764,2.869,2.869,0,0,1-1.912,2.623l1.77,3.281a.244.244,0,0,1-.22.375h-1.008a.239.239,0,0,1-.207-.116l-1.718-3.423h-1.951v3.294a.254.254,0,0,1-.245.246h-.84a.245.245,0,0,1-.245-.246Zm3.656,4.148a1.605,1.605,0,0,0,1.576-1.6,1.583,1.583,0,0,0-1.576-1.537h-2.3v3.139Z" transform="translate(-455.373 -469.123)" fill="#fff"/>
        </g>
        <g id="Group_412" data-name="Group 412" transform="translate(0.659 16.321)" style="isolation: isolate">
          <path id="Path_491" data-name="Path 491" d="M413.8,493.5a.245.245,0,0,1,.245-.245h.853a.253.253,0,0,1,.245.245v7.6h3.5a.245.245,0,0,1,.245.246v.71a.245.245,0,0,1-.245.246h-4.6a.245.245,0,0,1-.245-.246Z" transform="translate(-413.796 -493.123)" fill="#fff"/>
          <path id="Path_492" data-name="Path 492" d="M423.835,501.9,427.8,493.2a.3.3,0,0,1,.22-.142h.129a.3.3,0,0,1,.22.142l3.94,8.695a.228.228,0,0,1-.22.336h-.813a.3.3,0,0,1-.3-.194l-.8-1.77h-4.225c-.258.594-.529,1.176-.788,1.77a.326.326,0,0,1-.3.194h-.814A.228.228,0,0,1,423.835,501.9Zm5.853-2.739-1.589-3.54h-.065l-1.576,3.54Z" transform="translate(-417 -493.062)" fill="#fff"/>
          <path id="Path_493" data-name="Path 493" d="M439.978,493.294a.242.242,0,0,1,.245-.232h.323l5.607,6.486h.013v-6.112a.245.245,0,0,1,.246-.245h.827a.254.254,0,0,1,.246.245v8.695a.243.243,0,0,1-.246.233H446.9L441.3,495.7h-.013v6.291a.245.245,0,0,1-.245.246h-.814a.254.254,0,0,1-.245-.246Z" transform="translate(-422.173 -493.062)" fill="#fff"/>
          <path id="Path_494" data-name="Path 494" d="M456.469,493.5a.243.243,0,0,1,.233-.245h2.972a4.522,4.522,0,1,1,0,9.043H456.7a.243.243,0,0,1-.233-.246Zm3.024,7.571a3.294,3.294,0,0,0,0-6.588h-1.706v6.588Z" transform="translate(-427.449 -493.123)" fill="#fff"/>
          <path id="Path_495" data-name="Path 495" d="M479.754,497.377v-.026l-.3-.323a2.612,2.612,0,0,1-.892-1.873,2.172,2.172,0,0,1,2.364-2.093,2.115,2.115,0,0,1,2.313,2.054c0,1.24-1.24,2.067-1.744,2.416l1.809,1.808a4.67,4.67,0,0,0,.49-1.86c.013-.284.116-.362.362-.31l.529.1c.3.052.233.284.22.4a6.914,6.914,0,0,1-.787,2.48l1.2,1.163c.155.155.271.3-.026.594l-.336.335a.363.363,0,0,1-.556-.038l-1.02-1.034a3.694,3.694,0,0,1-2.817,1.189,2.422,2.422,0,0,1-2.609-2.4A3.087,3.087,0,0,1,479.754,497.377Zm.917,3.9a2.514,2.514,0,0,0,1.938-.93l-2.158-2.273a2.213,2.213,0,0,0-1.266,1.809A1.411,1.411,0,0,0,480.671,501.278Zm1.421-6.111a1.15,1.15,0,0,0-1.228-1.111,1.082,1.082,0,0,0-1.149,1.111,1.87,1.87,0,0,0,.749,1.318l.284.284C481.136,496.537,482.092,496.033,482.092,495.167Z" transform="translate(-434.324 -493.062)" fill="#fff"/>
          <path id="Path_496" data-name="Path 496" d="M498.915,493.5a.245.245,0,0,1,.245-.245h.853a.254.254,0,0,1,.245.245v7.6h3.5a.245.245,0,0,1,.245.246v.71a.245.245,0,0,1-.245.246h-4.6a.245.245,0,0,1-.245-.246Z" transform="translate(-441.029 -493.123)" fill="#fff"/>
          <path id="Path_497" data-name="Path 497" d="M510.162,493.5a.245.245,0,0,1,.245-.245h5.168a.245.245,0,0,1,.245.245v.724a.245.245,0,0,1-.245.245h-4.083V497.1h3.449a.254.254,0,0,1,.246.245v.724a.245.245,0,0,1-.246.245h-3.449v2.778h4.083a.245.245,0,0,1,.245.246v.71a.245.245,0,0,1-.245.246h-5.168a.245.245,0,0,1-.245-.246Z" transform="translate(-444.628 -493.123)" fill="#fff"/>
          <path id="Path_498" data-name="Path 498" d="M526.745,493.062a4.7,4.7,0,0,1,3.139,1.2.25.25,0,0,1,.013.362c-.194.207-.388.4-.581.607-.1.116-.207.1-.335-.013a3.445,3.445,0,0,0-2.2-.879,3.355,3.355,0,0,0,0,6.705,4.555,4.555,0,0,0,1.938-.439v-1.447h-1.266a.234.234,0,0,1-.246-.232v-.749a.238.238,0,0,1,.246-.245h2.352a.243.243,0,0,1,.232.245c0,1.033.013,2.093.013,3.126a.321.321,0,0,1-.1.207,6.461,6.461,0,0,1-3.2.853,4.651,4.651,0,1,1,0-9.3Z" transform="translate(-448.445 -493.062)" fill="#fff"/>
          <path id="Path_499" data-name="Path 499" d="M536.75,501.9l3.966-8.695a.3.3,0,0,1,.22-.142h.129a.3.3,0,0,1,.22.142l3.94,8.695a.228.228,0,0,1-.22.336h-.814a.3.3,0,0,1-.3-.194l-.8-1.77h-4.225c-.258.594-.529,1.176-.788,1.77a.327.327,0,0,1-.3.194h-.813A.228.228,0,0,1,536.75,501.9Zm5.852-2.739-1.589-3.54h-.065l-1.576,3.54Z" transform="translate(-453.126 -493.062)" fill="#fff"/>
          <path id="Path_500" data-name="Path 500" d="M556.512,493.062a4.486,4.486,0,0,1,3.126,1.2.24.24,0,0,1,.013.362l-.568.582c-.09.116-.206.116-.322,0a3.506,3.506,0,0,0-2.235-.866,3.354,3.354,0,0,0,.013,6.705,3.461,3.461,0,0,0,2.222-.853.236.236,0,0,1,.309-.013l.594.581a.246.246,0,0,1-.013.349,4.437,4.437,0,0,1-3.139,1.253,4.651,4.651,0,1,1,0-9.3Z" transform="translate(-457.965 -493.062)" fill="#fff"/>
          <path id="Path_501" data-name="Path 501" d="M568.969,497.941l-3.023-4.314a.239.239,0,0,1,.207-.375h.956a.259.259,0,0,1,.207.116l2.338,3.294,2.338-3.294a.279.279,0,0,1,.207-.116h.969a.239.239,0,0,1,.207.375l-3.062,4.3v4.12a.254.254,0,0,1-.246.246h-.852a.245.245,0,0,1-.246-.246Z" transform="translate(-462.462 -493.123)" fill="#fff"/>
        </g>
      </g>
      <g id="amendment" transform="translate(0.096 33.213)" style="isolation: isolate">
        <g id="Group_413" data-name="Group 413" style="isolation: isolate">
          <path id="Path_502" data-name="Path 502" d="M412.988,524.877l3.132-6.865a.241.241,0,0,1,.173-.112h.1a.241.241,0,0,1,.173.112l3.111,6.865a.18.18,0,0,1-.173.265h-.643a.238.238,0,0,1-.235-.153l-.632-1.4h-3.336c-.2.469-.418.928-.622,1.4a.256.256,0,0,1-.235.153h-.643A.18.18,0,0,1,412.988,524.877Zm4.621-2.163-1.255-2.794H416.3l-1.244,2.794Z" transform="translate(-412.968 -517.9)" fill="#fff"/>
          <path id="Path_503" data-name="Path 503" d="M430.3,518.053a.206.206,0,0,1,.184-.153h.163a.209.209,0,0,1,.173.112l2.131,5.212h.042l2.122-5.212a.2.2,0,0,1,.173-.112h.163a.205.205,0,0,1,.184.153l1.255,6.855a.174.174,0,0,1-.184.235h-.663a.214.214,0,0,1-.194-.143l-.755-4.56h-.031l-1.835,4.692a.174.174,0,0,1-.174.112h-.184a.185.185,0,0,1-.173-.112l-1.846-4.692h-.041l-.734,4.56a.2.2,0,0,1-.184.143h-.663a.183.183,0,0,1-.194-.235Z" transform="translate(-418.106 -517.9)" fill="#fff"/>
          <path id="Path_504" data-name="Path 504" d="M448.2,518.244a.194.194,0,0,1,.193-.194h4.08a.194.194,0,0,1,.194.194v.571a.194.194,0,0,1-.194.194h-3.223v2.082h2.723a.2.2,0,0,1,.194.193v.571a.194.194,0,0,1-.194.194h-2.723v2.193h3.223a.194.194,0,0,1,.194.193V525a.194.194,0,0,1-.194.194H448.4A.193.193,0,0,1,448.2,525Z" transform="translate(-424.241 -517.948)" fill="#fff"/>
          <path id="Path_505" data-name="Path 505" d="M462.453,518.084a.192.192,0,0,1,.193-.184h.255l4.427,5.121h.01V518.2a.194.194,0,0,1,.194-.194h.653a.2.2,0,0,1,.194.194v6.865a.192.192,0,0,1-.194.184h-.265l-4.427-5.264h-.01v4.968a.193.193,0,0,1-.193.194h-.643a.2.2,0,0,1-.193-.194Z" transform="translate(-428.8 -517.9)" fill="#fff"/>
          <path id="Path_506" data-name="Path 506" d="M479.493,518.244a.192.192,0,0,1,.184-.194h2.346a3.57,3.57,0,1,1,0,7.141h-2.346a.191.191,0,0,1-.184-.194Zm2.386,5.978a2.6,2.6,0,0,0,0-5.2h-1.347v5.2Z" transform="translate(-434.252 -517.948)" fill="#fff"/>
          <path id="Path_507" data-name="Path 507" d="M496.6,518.053a.207.207,0,0,1,.184-.153h.164a.21.21,0,0,1,.173.112l2.131,5.212h.041l2.122-5.212a.2.2,0,0,1,.173-.112h.163a.206.206,0,0,1,.184.153l1.255,6.855a.174.174,0,0,1-.184.235h-.663a.213.213,0,0,1-.194-.143l-.755-4.56h-.031l-1.836,4.692a.173.173,0,0,1-.173.112h-.184a.185.185,0,0,1-.173-.112l-1.846-4.692h-.041l-.734,4.56a.2.2,0,0,1-.184.143h-.663a.183.183,0,0,1-.194-.235Z" transform="translate(-439.318 -517.9)" fill="#fff"/>
          <path id="Path_508" data-name="Path 508" d="M514.5,518.244a.194.194,0,0,1,.194-.194h4.08a.194.194,0,0,1,.194.194v.571a.194.194,0,0,1-.194.194h-3.223v2.082h2.724a.2.2,0,0,1,.194.193v.571a.194.194,0,0,1-.194.194h-2.724v2.193h3.223a.193.193,0,0,1,.194.193V525a.194.194,0,0,1-.194.194H514.7A.194.194,0,0,1,514.5,525Z" transform="translate(-445.453 -517.948)" fill="#fff"/>
          <path id="Path_509" data-name="Path 509" d="M528.752,518.084a.192.192,0,0,1,.193-.184h.255l4.427,5.121h.011V518.2a.194.194,0,0,1,.194-.194h.653a.2.2,0,0,1,.193.194v6.865a.192.192,0,0,1-.193.184h-.266l-4.427-5.264h-.01v4.968a.194.194,0,0,1-.195.194h-.643a.2.2,0,0,1-.193-.194Z" transform="translate(-450.012 -517.9)" fill="#fff"/>
          <path id="Path_510" data-name="Path 510" d="M546.358,519.009H544.7a.194.194,0,0,1-.194-.194v-.571a.194.194,0,0,1,.194-.194h4.386a.194.194,0,0,1,.194.194v.571a.194.194,0,0,1-.194.194h-1.663V525a.2.2,0,0,1-.193.194h-.673a.2.2,0,0,1-.195-.194Z" transform="translate(-455.051 -517.948)" fill="#fff"/>
        </g>
      </g>
    </g>
  </g>
</svg>
